<mxfile host="app.diagrams.net" modified="2024-01-15T00:00:00.000Z" agent="5.0" etag="xxx" version="22.1.16" type="device">
  <diagram name="TtalKkak-Component-Diagram" id="component-diagram">
    <mxGraphModel dx="1600" dy="900" grid="1" gridSize="10" guides="1" tooltips="1" connect="1" arrows="1" fold="1" page="1" pageScale="1" pageWidth="1800" pageHeight="1200" math="0" shadow="0">
      <root>
        <mxCell id="0" />
        <mxCell id="1" parent="0" />
        
        <!-- 제목 -->
        <mxCell id="title" value="TtalKkak AI 프로젝트 관리 시스템 - 컴포넌트 다이어그램" style="text;html=1;strokeColor=none;fillColor=none;align=center;verticalAlign=middle;whiteSpace=wrap;rounded=0;fontSize=18;fontStyle=1;" vertex="1" parent="1">
          <mxGeometry x="400" y="20" width="1000" height="30" as="geometry"/>
        </mxCell>
        
        <!-- 클라이언트 레이어 -->
        <mxCell id="client-layer" value="" style="rounded=1;whiteSpace=wrap;html=1;fillColor=#f3e5f5;strokeColor=#7b1fa2;strokeWidth=2;dashed=1;" vertex="1" parent="1">
          <mxGeometry x="50" y="80" width="1700" height="150" as="geometry"/>
        </mxCell>
        
        <mxCell id="client-title" value="클라이언트 레이어" style="text;html=1;strokeColor=none;fillColor=none;align=left;verticalAlign=middle;whiteSpace=wrap;rounded=0;fontSize=16;fontStyle=1;fontColor=#7b1fa2;" vertex="1" parent="1">
          <mxGeometry x="70" y="90" width="200" height="30" as="geometry"/>
        </mxCell>
        
        <!-- Slack Bot 컴포넌트 -->
        <mxCell id="slack-bot-component" value="" style="rounded=1;whiteSpace=wrap;html=1;fillColor=#e1bee7;strokeColor=#7b1fa2;strokeWidth=1;" vertex="1" parent="1">
          <mxGeometry x="80" y="130" width="250" height="80" as="geometry"/>
        </mxCell>
        
        <mxCell id="slack-bot-title" value="Slack Bot" style="text;html=1;strokeColor=none;fillColor=none;align=center;verticalAlign=middle;whiteSpace=wrap;rounded=0;fontSize=14;fontStyle=1;" vertex="1" parent="1">
          <mxGeometry x="140" y="140" width="130" height="20" as="geometry"/>
        </mxCell>
        
        <mxCell id="slack-event-handler" value="• SlackEventHandler" style="text;html=1;strokeColor=none;fillColor=none;align=left;verticalAlign=middle;whiteSpace=wrap;rounded=0;fontSize=10;" vertex="1" parent="1">
          <mxGeometry x="90" y="160" width="120" height="15" as="geometry"/>
        </mxCell>
        
        <mxCell id="slack-modal-manager" value="• ModalManager" style="text;html=1;strokeColor=none;fillColor=none;align=left;verticalAlign=middle;whiteSpace=wrap;rounded=0;fontSize=10;" vertex="1" parent="1">
          <mxGeometry x="90" y="175" width="120" height="15" as="geometry"/>
        </mxCell>
        
        <mxCell id="slack-file-handler" value="• FileUploadHandler" style="text;html=1;strokeColor=none;fillColor=none;align=left;verticalAlign=middle;whiteSpace=wrap;rounded=0;fontSize=10;" vertex="1" parent="1">
          <mxGeometry x="90" y="190" width="120" height="15" as="geometry"/>
        </mxCell>
        
        <mxCell id="slack-command-processor" value="• CommandProcessor" style="text;html=1;strokeColor=none;fillColor=none;align=left;verticalAlign=middle;whiteSpace=wrap;rounded=0;fontSize=10;" vertex="1" parent="1">
          <mxGeometry x="210" y="160" width="120" height="15" as="geometry"/>
        </mxCell>
        
        <mxCell id="slack-notification" value="• NotificationService" style="text;html=1;strokeColor=none;fillColor=none;align=left;verticalAlign=middle;whiteSpace=wrap;rounded=0;fontSize=10;" vertex="1" parent="1">
          <mxGeometry x="210" y="175" width="120" height="15" as="geometry"/>
        </mxCell>
        
        <!-- Web Dashboard 컴포넌트 -->
        <mxCell id="web-dashboard-component" value="" style="rounded=1;whiteSpace=wrap;html=1;fillColor=#e1bee7;strokeColor=#7b1fa2;strokeWidth=1;" vertex="1" parent="1">
          <mxGeometry x="350" y="130" width="280" height="80" as="geometry"/>
        </mxCell>
        
        <mxCell id="web-dashboard-title" value="Web Dashboard" style="text;html=1;strokeColor=none;fillColor=none;align=center;verticalAlign=middle;whiteSpace=wrap;rounded=0;fontSize=14;fontStyle=1;" vertex="1" parent="1">
          <mxGeometry x="420" y="140" width="140" height="20" as="geometry"/>
        </mxCell>
        
        <mxCell id="project-dashboard" value="• ProjectDashboard" style="text;html=1;strokeColor=none;fillColor=none;align=left;verticalAlign=middle;whiteSpace=wrap;rounded=0;fontSize=10;" vertex="1" parent="1">
          <mxGeometry x="360" y="160" width="120" height="15" as="geometry"/>
        </mxCell>
        
        <mxCell id="task-management" value="• TaskManagement" style="text;html=1;strokeColor=none;fillColor=none;align=left;verticalAlign=middle;whiteSpace=wrap;rounded=0;fontSize=10;" vertex="1" parent="1">
          <mxGeometry x="360" y="175" width="120" height="15" as="geometry"/>
        </mxCell>
        
        <mxCell id="user-management" value="• UserManagement" style="text;html=1;strokeColor=none;fillColor=none;align=left;verticalAlign=middle;whiteSpace=wrap;rounded=0;fontSize=10;" vertex="1" parent="1">
          <mxGeometry x="360" y="190" width="120" height="15" as="geometry"/>
        </mxCell>
        
        <mxCell id="analytics-dashboard" value="• AnalyticsDashboard" style="text;html=1;strokeColor=none;fillColor=none;align=left;verticalAlign=middle;whiteSpace=wrap;rounded=0;fontSize=10;" vertex="1" parent="1">
          <mxGeometry x="490" y="160" width="130" height="15" as="geometry"/>
        </mxCell>
        
        <mxCell id="settings-panel" value="• SettingsPanel" style="text;html=1;strokeColor=none;fillColor=none;align=left;verticalAlign=middle;whiteSpace=wrap;rounded=0;fontSize=10;" vertex="1" parent="1">
          <mxGeometry x="490" y="175" width="130" height="15" as="geometry"/>
        </mxCell>
        
        <!-- Chrome Extension 컴포넌트 -->
        <mxCell id="chrome-extension-component" value="" style="rounded=1;whiteSpace=wrap;html=1;fillColor=#e1bee7;strokeColor=#7b1fa2;strokeWidth=1;" vertex="1" parent="1">
          <mxGeometry x="650" y="130" width="200" height="80" as="geometry"/>
        </mxCell>
        
        <mxCell id="chrome-extension-title" value="Chrome Extension" style="text;html=1;strokeColor=none;fillColor=none;align=center;verticalAlign=middle;whiteSpace=wrap;rounded=0;fontSize=14;fontStyle=1;" vertex="1" parent="1">
          <mxGeometry x="700" y="140" width="100" height="20" as="geometry"/>
        </mxCell>
        
        <mxCell id="content-script" value="• ContentScript" style="text;html=1;strokeColor=none;fillColor=none;align=left;verticalAlign=middle;whiteSpace=wrap;rounded=0;fontSize=10;" vertex="1" parent="1">
          <mxGeometry x="660" y="160" width="100" height="15" as="geometry"/>
        </mxCell>
        
        <mxCell id="background-script" value="• BackgroundScript" style="text;html=1;strokeColor=none;fillColor=none;align=left;verticalAlign=middle;whiteSpace=wrap;rounded=0;fontSize=10;" vertex="1" parent="1">
          <mxGeometry x="660" y="175" width="100" height="15" as="geometry"/>
        </mxCell>
        
        <mxCell id="popup-ui" value="• PopupUI" style="text;html=1;strokeColor=none;fillColor=none;align=left;verticalAlign=middle;whiteSpace=wrap;rounded=0;fontSize=10;" vertex="1" parent="1">
          <mxGeometry x="660" y="190" width="100" height="15" as="geometry"/>
        </mxCell>
        
        <!-- 백엔드 API 레이어 -->
        <mxCell id="backend-layer" value="" style="rounded=1;whiteSpace=wrap;html=1;fillColor=#fff3e0;strokeColor=#f57c00;strokeWidth=2;dashed=1;" vertex="1" parent="1">
          <mxGeometry x="50" y="250" width="1700" height="200" as="geometry"/>
        </mxCell>
        
        <mxCell id="backend-title" value="백엔드 API 레이어" style="text;html=1;strokeColor=none;fillColor=none;align=left;verticalAlign=middle;whiteSpace=wrap;rounded=0;fontSize=16;fontStyle=1;fontColor=#f57c00;" vertex="1" parent="1">
          <mxGeometry x="70" y="260" width="200" height="30" as="geometry"/>
        </mxCell>
        
        <!-- Express Server 컴포넌트 -->
        <mxCell id="express-server-component" value="" style="rounded=1;whiteSpace=wrap;html=1;fillColor=#ffe0b2;strokeColor=#f57c00;strokeWidth=1;" vertex="1" parent="1">
          <mxGeometry x="80" y="300" width="300" height="130" as="geometry"/>
        </mxCell>
        
        <mxCell id="express-server-title" value="Express Server" style="text;html=1;strokeColor=none;fillColor=none;align=center;verticalAlign=middle;whiteSpace=wrap;rounded=0;fontSize=14;fontStyle=1;" vertex="1" parent="1">
          <mxGeometry x="180" y="310" width="100" height="20" as="geometry"/>
        </mxCell>
        
        <mxCell id="api-gateway" value="• APIGateway" style="text;html=1;strokeColor=none;fillColor=none;align=left;verticalAlign=middle;whiteSpace=wrap;rounded=0;fontSize=10;" vertex="1" parent="1">
          <mxGeometry x="90" y="330" width="100" height="15" as="geometry"/>
        </mxCell>
        
        <mxCell id="auth-controller" value="• AuthController" style="text;html=1;strokeColor=none;fillColor=none;align=left;verticalAlign=middle;whiteSpace=wrap;rounded=0;fontSize=10;" vertex="1" parent="1">
          <mxGeometry x="90" y="345" width="100" height="15" as="geometry"/>
        </mxCell>
        
        <mxCell id="file-controller" value="• FileController" style="text;html=1;strokeColor=none;fillColor=none;align=left;verticalAlign=middle;whiteSpace=wrap;rounded=0;fontSize=10;" vertex="1" parent="1">
          <mxGeometry x="90" y="360" width="100" height="15" as="geometry"/>
        </mxCell>
        
        <mxCell id="project-controller" value="• ProjectController" style="text;html=1;strokeColor=none;fillColor=none;align=left;verticalAlign=middle;whiteSpace=wrap;rounded=0;fontSize=10;" vertex="1" parent="1">
          <mxGeometry x="90" y="375" width="100" height="15" as="geometry"/>
        </mxCell>
        
        <mxCell id="middleware-stack" value="• MiddlewareStack" style="text;html=1;strokeColor=none;fillColor=none;align=left;verticalAlign=middle;whiteSpace=wrap;rounded=0;fontSize=10;" vertex="1" parent="1">
          <mxGeometry x="90" y="390" width="100" height="15" as="geometry"/>
        </mxCell>
        
        <mxCell id="oauth-manager" value="• OAuthManager" style="text;html=1;strokeColor=none;fillColor=none;align=left;verticalAlign=middle;whiteSpace=wrap;rounded=0;fontSize=10;" vertex="1" parent="1">
          <mxGeometry x="200" y="330" width="100" height="15" as="geometry"/>
        </mxCell>
        
        <mxCell id="rate-limiter" value="• RateLimiter" style="text;html=1;strokeColor=none;fillColor=none;align=left;verticalAlign=middle;whiteSpace=wrap;rounded=0;fontSize=10;" vertex="1" parent="1">
          <mxGeometry x="200" y="345" width="100" height="15" as="geometry"/>
        </mxCell>
        
        <mxCell id="error-handler" value="• ErrorHandler" style="text;html=1;strokeColor=none;fillColor=none;align=left;verticalAlign=middle;whiteSpace=wrap;rounded=0;fontSize=10;" vertex="1" parent="1">
          <mxGeometry x="200" y="360" width="100" height="15" as="geometry"/>
        </mxCell>
        
        <mxCell id="logger" value="• Logger" style="text;html=1;strokeColor=none;fillColor=none;align=left;verticalAlign=middle;whiteSpace=wrap;rounded=0;fontSize=10;" vertex="1" parent="1">
          <mxGeometry x="200" y="375" width="100" height="15" as="geometry"/>
        </mxCell>
        
        <mxCell id="validator" value="• Validator" style="text;html=1;strokeColor=none;fillColor=none;align=left;verticalAlign=middle;whiteSpace=wrap;rounded=0;fontSize=10;" vertex="1" parent="1">
          <mxGeometry x="200" y="390" width="100" height="15" as="geometry"/>
        </mxCell>
        
        <!-- Slack Handler 컴포넌트 -->
        <mxCell id="slack-handler-component" value="" style="rounded=1;whiteSpace=wrap;html=1;fillColor=#ffe0b2;strokeColor=#f57c00;strokeWidth=1;" vertex="1" parent="1">
          <mxGeometry x="400" y="300" width="200" height="130" as="geometry"/>
        </mxCell>
        
        <mxCell id="slack-handler-title" value="Slack Handler" style="text;html=1;strokeColor=none;fillColor=none;align=center;verticalAlign=middle;whiteSpace=wrap;rounded=0;fontSize=14;fontStyle=1;" vertex="1" parent="1">
          <mxGeometry x="450" y="310" width="100" height="20" as="geometry"/>
        </mxCell>
        
        <mxCell id="bolt-app" value="• BoltApp" style="text;html=1;strokeColor=none;fillColor=none;align=left;verticalAlign=middle;whiteSpace=wrap;rounded=0;fontSize=10;" vertex="1" parent="1">
          <mxGeometry x="410" y="330" width="80" height="15" as="geometry"/>
        </mxCell>
        
        <mxCell id="event-processor" value="• EventProcessor" style="text;html=1;strokeColor=none;fillColor=none;align=left;verticalAlign=middle;whiteSpace=wrap;rounded=0;fontSize=10;" vertex="1" parent="1">
          <mxGeometry x="410" y="345" width="100" height="15" as="geometry"/>
        </mxCell>
        
        <mxCell id="session-manager" value="• SessionManager" style="text;html=1;strokeColor=none;fillColor=none;align=left;verticalAlign=middle;whiteSpace=wrap;rounded=0;fontSize=10;" vertex="1" parent="1">
          <mxGeometry x="410" y="360" width="100" height="15" as="geometry"/>
        </mxCell>
        
        <mxCell id="workflow-engine" value="• WorkflowEngine" style="text;html=1;strokeColor=none;fillColor=none;align=left;verticalAlign=middle;whiteSpace=wrap;rounded=0;fontSize=10;" vertex="1" parent="1">
          <mxGeometry x="410" y="375" width="100" height="15" as="geometry"/>
        </mxCell>
        
        <mxCell id="state-tracker" value="• StateTracker" style="text;html=1;strokeColor=none;fillColor=none;align=left;verticalAlign=middle;whiteSpace=wrap;rounded=0;fontSize=10;" vertex="1" parent="1">
          <mxGeometry x="410" y="390" width="100" height="15" as="geometry"/>
        </mxCell>
        
        <mxCell id="ui-builder" value="• UIBuilder" style="text;html=1;strokeColor=none;fillColor=none;align=left;verticalAlign=middle;whiteSpace=wrap;rounded=0;fontSize=10;" vertex="1" parent="1">
          <mxGeometry x="520" y="330" width="70" height="15" as="geometry"/>
        </mxCell>
        
        <mxCell id="response-handler" value="• ResponseHandler" style="text;html=1;strokeColor=none;fillColor=none;align=left;verticalAlign=middle;whiteSpace=wrap;rounded=0;fontSize=10;" vertex="1" parent="1">
          <mxGeometry x="520" y="345" width="100" height="15" as="geometry"/>
        </mxCell>
        
        <!-- Tenant Middleware 컴포넌트 -->
        <mxCell id="tenant-middleware-component" value="" style="rounded=1;whiteSpace=wrap;html=1;fillColor=#ffe0b2;strokeColor=#f57c00;strokeWidth=1;" vertex="1" parent="1">
          <mxGeometry x="620" y="300" width="200" height="130" as="geometry"/>
        </mxCell>
        
        <mxCell id="tenant-middleware-title" value="Tenant Middleware" style="text;html=1;strokeColor=none;fillColor=none;align=center;verticalAlign=middle;whiteSpace=wrap;rounded=0;fontSize=14;fontStyle=1;" vertex="1" parent="1">
          <mxGeometry x="670" y="310" width="100" height="20" as="geometry"/>
        </mxCell>
        
        <mxCell id="tenant-resolver" value="• TenantResolver" style="text;html=1;strokeColor=none;fillColor=none;align=left;verticalAlign=middle;whiteSpace=wrap;rounded=0;fontSize=10;" vertex="1" parent="1">
          <mxGeometry x="630" y="330" width="100" height="15" as="geometry"/>
        </mxCell>
        
        <mxCell id="data-isolator" value="• DataIsolator" style="text;html=1;strokeColor=none;fillColor=none;align=left;verticalAlign=middle;whiteSpace=wrap;rounded=0;fontSize=10;" vertex="1" parent="1">
          <mxGeometry x="630" y="345" width="100" height="15" as="geometry"/>
        </mxCell>
        
        <mxCell id="resource-manager" value="• ResourceManager" style="text;html=1;strokeColor=none;fillColor=none;align=left;verticalAlign=middle;whiteSpace=wrap;rounded=0;fontSize=10;" vertex="1" parent="1">
          <mxGeometry x="630" y="360" width="100" height="15" as="geometry"/>
        </mxCell>
        
        <mxCell id="security-policy" value="• SecurityPolicy" style="text;html=1;strokeColor=none;fillColor=none;align=left;verticalAlign=middle;whiteSpace=wrap;rounded=0;fontSize=10;" vertex="1" parent="1">
          <mxGeometry x="630" y="375" width="100" height="15" as="geometry"/>
        </mxCell>
        
        <mxCell id="audit-logger" value="• AuditLogger" style="text;html=1;strokeColor=none;fillColor=none;align=left;verticalAlign=middle;whiteSpace=wrap;rounded=0;fontSize=10;" vertex="1" parent="1">
          <mxGeometry x="630" y="390" width="100" height="15" as="geometry"/>
        </mxCell>
        
        <!-- AI 처리 엔진 레이어 -->
        <mxCell id="ai-layer" value="" style="rounded=1;whiteSpace=wrap;html=1;fillColor=#ffebee;strokeColor=#d32f2f;strokeWidth=2;dashed=1;" vertex="1" parent="1">
          <mxGeometry x="50" y="470" width="1700" height="200" as="geometry"/>
        </mxCell>
        
        <mxCell id="ai-title" value="AI 처리 엔진 레이어" style="text;html=1;strokeColor=none;fillColor=none;align=left;verticalAlign=middle;whiteSpace=wrap;rounded=0;fontSize=16;fontStyle=1;fontColor=#d32f2f;" vertex="1" parent="1">
          <mxGeometry x="70" y="480" width="200" height="30" as="geometry"/>
        </mxCell>
        
        <!-- AI Server 컴포넌트 -->
        <mxCell id="ai-server-component" value="" style="rounded=1;whiteSpace=wrap;html=1;fillColor=#ffcdd2;strokeColor=#d32f2f;strokeWidth=1;" vertex="1" parent="1">
          <mxGeometry x="80" y="520" width="250" height="130" as="geometry"/>
        </mxCell>
        
        <mxCell id="ai-server-title" value="AI Server" style="text;html=1;strokeColor=none;fillColor=none;align=center;verticalAlign=middle;whiteSpace=wrap;rounded=0;fontSize=14;fontStyle=1;" vertex="1" parent="1">
          <mxGeometry x="155" y="530" width="100" height="20" as="geometry"/>
        </mxCell>
        
        <mxCell id="pipeline-orchestrator" value="• PipelineOrchestrator" style="text;html=1;strokeColor=none;fillColor=none;align=left;verticalAlign=middle;whiteSpace=wrap;rounded=0;fontSize=10;" vertex="1" parent="1">
          <mxGeometry x="90" y="550" width="120" height="15" as="geometry"/>
        </mxCell>
        
        <mxCell id="gpu-manager" value="• GPUManager" style="text;html=1;strokeColor=none;fillColor=none;align=left;verticalAlign=middle;whiteSpace=wrap;rounded=0;fontSize=10;" vertex="1" parent="1">
          <mxGeometry x="90" y="565" width="100" height="15" as="geometry"/>
        </mxCell>
        
        <mxCell id="task-queue" value="• TaskQueue" style="text;html=1;strokeColor=none;fillColor=none;align=left;verticalAlign=middle;whiteSpace=wrap;rounded=0;fontSize=10;" vertex="1" parent="1">
          <mxGeometry x="90" y="580" width="100" height="15" as="geometry"/>
        </mxCell>
        
        <mxCell id="result-processor" value="• ResultProcessor" style="text;html=1;strokeColor=none;fillColor=none;align=left;verticalAlign=middle;whiteSpace=wrap;rounded=0;fontSize=10;" vertex="1" parent="1">
          <mxGeometry x="90" y="595" width="100" height="15" as="geometry"/>
        </mxCell>
        
        <mxCell id="api-server" value="• APIServer" style="text;html=1;strokeColor=none;fillColor=none;align=left;verticalAlign=middle;whiteSpace=wrap;rounded=0;fontSize=10;" vertex="1" parent="1">
          <mxGeometry x="90" y="610" width="100" height="15" as="geometry"/>
        </mxCell>
        
        <mxCell id="model-loader" value="• ModelLoader" style="text;html=1;strokeColor=none;fillColor=none;align=left;verticalAlign=middle;whiteSpace=wrap;rounded=0;fontSize=10;" vertex="1" parent="1">
          <mxGeometry x="200" y="550" width="100" height="15" as="geometry"/>
        </mxCell>
        
        <mxCell id="cache-manager" value="• CacheManager" style="text;html=1;strokeColor=none;fillColor=none;align=left;verticalAlign=middle;whiteSpace=wrap;rounded=0;fontSize=10;" vertex="1" parent="1">
          <mxGeometry x="200" y="565" width="100" height="15" as="geometry"/>
        </mxCell>
        
        <mxCell id="metric-collector" value="• MetricCollector" style="text;html=1;strokeColor=none;fillColor=none;align=left;verticalAlign=middle;whiteSpace=wrap;rounded=0;fontSize=10;" vertex="1" parent="1">
          <mxGeometry x="200" y="580" width="100" height="15" as="geometry"/>
        </mxCell>
        
        <!-- WhisperX 컴포넌트 -->
        <mxCell id="whisperx-component" value="" style="rounded=1;whiteSpace=wrap;html=1;fillColor=#ffcdd2;strokeColor=#d32f2f;strokeWidth=1;" vertex="1" parent="1">
          <mxGeometry x="350" y="520" width="200" height="130" as="geometry"/>
        </mxCell>
        
        <mxCell id="whisperx-title" value="WhisperX STT" style="text;html=1;strokeColor=none;fillColor=none;align=center;verticalAlign=middle;whiteSpace=wrap;rounded=0;fontSize=14;fontStyle=1;" vertex="1" parent="1">
          <mxGeometry x="400" y="530" width="100" height="20" as="geometry"/>
        </mxCell>
        
        <mxCell id="audio-processor" value="• AudioProcessor" style="text;html=1;strokeColor=none;fillColor=none;align=left;verticalAlign=middle;whiteSpace=wrap;rounded=0;fontSize=10;" vertex="1" parent="1">
          <mxGeometry x="360" y="550" width="100" height="15" as="geometry"/>
        </mxCell>
        
        <mxCell id="speech-recognizer" value="• SpeechRecognizer" style="text;html=1;strokeColor=none;fillColor=none;align=left;verticalAlign=middle;whiteSpace=wrap;rounded=0;fontSize=10;" vertex="1" parent="1">
          <mxGeometry x="360" y="565" width="110" height="15" as="geometry"/>
        </mxCell>
        
        <mxCell id="diarization-engine" value="• DiarizationEngine" style="text;html=1;strokeColor=none;fillColor=none;align=left;verticalAlign=middle;whiteSpace=wrap;rounded=0;fontSize=10;" vertex="1" parent="1">
          <mxGeometry x="360" y="580" width="110" height="15" as="geometry"/>
        </mxCell>
        
        <mxCell id="timestamp-aligner" value="• TimestampAligner" style="text;html=1;strokeColor=none;fillColor=none;align=left;verticalAlign=middle;whiteSpace=wrap;rounded=0;fontSize=10;" vertex="1" parent="1">
          <mxGeometry x="360" y="595" width="110" height="15" as="geometry"/>
        </mxCell>
        
        <mxCell id="noise-reducer" value="• NoiseReducer" style="text;html=1;strokeColor=none;fillColor=none;align=left;verticalAlign=middle;whiteSpace=wrap;rounded=0;fontSize=10;" vertex="1" parent="1">
          <mxGeometry x="360" y="610" width="100" height="15" as="geometry"/>
        </mxCell>
        
        <!-- KLUE-BERT 컴포넌트 -->
        <mxCell id="klue-bert-component" value="" style="rounded=1;whiteSpace=wrap;html=1;fillColor=#ffcdd2;strokeColor=#d32f2f;strokeWidth=1;" vertex="1" parent="1">
          <mxGeometry x="570" y="520" width="200" height="130" as="geometry"/>
        </mxCell>
        
        <mxCell id="klue-bert-title" value="KLUE-BERT" style="text;html=1;strokeColor=none;fillColor=none;align=center;verticalAlign=middle;whiteSpace=wrap;rounded=0;fontSize=14;fontStyle=1;" vertex="1" parent="1">
          <mxGeometry x="620" y="530" width="100" height="20" as="geometry"/>
        </mxCell>
        
        <mxCell id="text-preprocessor" value="• TextPreprocessor" style="text;html=1;strokeColor=none;fillColor=none;align=left;verticalAlign=middle;whiteSpace=wrap;rounded=0;fontSize=10;" vertex="1" parent="1">
          <mxGeometry x="580" y="550" width="100" height="15" as="geometry"/>
        </mxCell>
        
        <mxCell id="sentence-analyzer" value="• SentenceAnalyzer" style="text;html=1;strokeColor=none;fillColor=none;align=left;verticalAlign=middle;whiteSpace=wrap;rounded=0;fontSize=10;" vertex="1" parent="1">
          <mxGeometry x="580" y="565" width="110" height="15" as="geometry"/>
        </mxCell>
        
        <mxCell id="importance-scorer" value="• ImportanceScorer" style="text;html=1;strokeColor=none;fillColor=none;align=left;verticalAlign=middle;whiteSpace=wrap;rounded=0;fontSize=10;" vertex="1" parent="1">
          <mxGeometry x="580" y="580" width="110" height="15" as="geometry"/>
        </mxCell>
        
        <mxCell id="content-filter" value="• ContentFilter" style="text;html=1;strokeColor=none;fillColor=none;align=left;verticalAlign=middle;whiteSpace=wrap;rounded=0;fontSize=10;" vertex="1" parent="1">
          <mxGeometry x="580" y="595" width="100" height="15" as="geometry"/>
        </mxCell>
        
        <mxCell id="token-optimizer" value="• TokenOptimizer" style="text;html=1;strokeColor=none;fillColor=none;align=left;verticalAlign=middle;whiteSpace=wrap;rounded=0;fontSize=10;" vertex="1" parent="1">
          <mxGeometry x="580" y="610" width="100" height="15" as="geometry"/>
        </mxCell>
        
        <!-- Qwen3-32B 컴포넌트 -->
        <mxCell id="qwen3-component" value="" style="rounded=1;whiteSpace=wrap;html=1;fillColor=#ffcdd2;strokeColor=#d32f2f;strokeWidth=1;" vertex="1" parent="1">
          <mxGeometry x="790" y="520" width="200" height="130" as="geometry"/>
        </mxCell>
        
        <mxCell id="qwen3-title" value="Qwen3-32B LLM" style="text;html=1;strokeColor=none;fillColor=none;align=center;verticalAlign=middle;whiteSpace=wrap;rounded=0;fontSize=14;fontStyle=1;" vertex="1" parent="1">
          <mxGeometry x="840" y="530" width="100" height="20" as="geometry"/>
        </mxCell>
        
        <mxCell id="prompt-engineer" value="• PromptEngineer" style="text;html=1;strokeColor=none;fillColor=none;align=left;verticalAlign=middle;whiteSpace=wrap;rounded=0;fontSize=10;" vertex="1" parent="1">
          <mxGeometry x="800" y="550" width="100" height="15" as="geometry"/>
        </mxCell>
        
        <mxCell id="document-generator" value="• DocumentGenerator" style="text;html=1;strokeColor=none;fillColor=none;align=left;verticalAlign=middle;whiteSpace=wrap;rounded=0;fontSize=10;" vertex="1" parent="1">
          <mxGeometry x="800" y="565" width="120" height="15" as="geometry"/>
        </mxCell>
        
        <mxCell id="task-decomposer" value="• TaskDecomposer" style="text;html=1;strokeColor=none;fillColor=none;align=left;verticalAlign=middle;whiteSpace=wrap;rounded=0;fontSize=10;" vertex="1" parent="1">
          <mxGeometry x="800" y="580" width="110" height="15" as="geometry"/>
        </mxCell>
        
        <mxCell id="metadata-extractor" value="• MetadataExtractor" style="text;html=1;strokeColor=none;fillColor=none;align=left;verticalAlign=middle;whiteSpace=wrap;rounded=0;fontSize=10;" vertex="1" parent="1">
          <mxGeometry x="800" y="595" width="110" height="15" as="geometry"/>
        </mxCell>
        
        <mxCell id="response-validator" value="• ResponseValidator" style="text;html=1;strokeColor=none;fillColor=none;align=left;verticalAlign=middle;whiteSpace=wrap;rounded=0;fontSize=10;" vertex="1" parent="1">
          <mxGeometry x="800" y="610" width="110" height="15" as="geometry"/>
        </mxCell>
        
        <!-- 비즈니스 서비스 레이어 -->
        <mxCell id="business-layer" value="" style="rounded=1;whiteSpace=wrap;html=1;fillColor=#e8f5e8;strokeColor=#388e3c;strokeWidth=2;dashed=1;" vertex="1" parent="1">
          <mxGeometry x="50" y="690" width="1700" height="200" as="geometry"/>
        </mxCell>
        
        <mxCell id="business-title" value="비즈니스 서비스 레이어" style="text;html=1;strokeColor=none;fillColor=none;align=left;verticalAlign=middle;whiteSpace=wrap;rounded=0;fontSize=16;fontStyle=1;fontColor=#388e3c;" vertex="1" parent="1">
          <mxGeometry x="70" y="700" width="200" height="30" as="geometry"/>
        </mxCell>
        
        <!-- Task Assigner 컴포넌트 -->
        <mxCell id="task-assigner-component" value="" style="rounded=1;whiteSpace=wrap;html=1;fillColor=#c8e6c9;strokeColor=#388e3c;strokeWidth=1;" vertex="1" parent="1">
          <mxGeometry x="80" y="740" width="280" height="130" as="geometry"/>
        </mxCell>
        
        <mxCell id="task-assigner-title" value="Smart Task Assigner" style="text;html=1;strokeColor=none;fillColor=none;align=center;verticalAlign=middle;whiteSpace=wrap;rounded=0;fontSize=14;fontStyle=1;" vertex="1" parent="1">
          <mxGeometry x="170" y="750" width="100" height="20" as="geometry"/>
        </mxCell>
        
        <mxCell id="skill-matcher" value="• SkillMatcher" style="text;html=1;strokeColor=none;fillColor=none;align=left;verticalAlign=middle;whiteSpace=wrap;rounded=0;fontSize=10;" vertex="1" parent="1">
          <mxGeometry x="90" y="770" width="100" height="15" as="geometry"/>
        </mxCell>
        
        <mxCell id="workload-analyzer" value="• WorkloadAnalyzer" style="text;html=1;strokeColor=none;fillColor=none;align=left;verticalAlign=middle;whiteSpace=wrap;rounded=0;fontSize=10;" vertex="1" parent="1">
          <mxGeometry x="90" y="785" width="110" height="15" as="geometry"/>
        </mxCell>
        
        <mxCell id="experience-evaluator" value="• ExperienceEvaluator" style="text;html=1;strokeColor=none;fillColor=none;align=left;verticalAlign=middle;whiteSpace=wrap;rounded=0;fontSize=10;" vertex="1" parent="1">
          <mxGeometry x="90" y="800" width="120" height="15" as="geometry"/>
        </mxCell>
        
        <mxCell id="priority-calculator" value="• PriorityCalculator" style="text;html=1;strokeColor=none;fillColor=none;align=left;verticalAlign=middle;whiteSpace=wrap;rounded=0;fontSize=10;" vertex="1" parent="1">
          <mxGeometry x="90" y="815" width="110" height="15" as="geometry"/>
        </mxCell>
        
        <mxCell id="assignment-engine" value="• AssignmentEngine" style="text;html=1;strokeColor=none;fillColor=none;align=left;verticalAlign=middle;whiteSpace=wrap;rounded=0;fontSize=10;" vertex="1" parent="1">
          <mxGeometry x="90" y="830" width="110" height="15" as="geometry"/>
        </mxCell>
        
        <mxCell id="ml-predictor" value="• MLPredictor" style="text;html=1;strokeColor=none;fillColor=none;align=left;verticalAlign=middle;whiteSpace=wrap;rounded=0;fontSize=10;" vertex="1" parent="1">
          <mxGeometry x="210" y="770" width="100" height="15" as="geometry"/>
        </mxCell>
        
        <mxCell id="performance-tracker" value="• PerformanceTracker" style="text;html=1;strokeColor=none;fillColor=none;align=left;verticalAlign=middle;whiteSpace=wrap;rounded=0;fontSize=10;" vertex="1" parent="1">
          <mxGeometry x="210" y="785" width="120" height="15" as="geometry"/>
        </mxCell>
        
        <mxCell id="learning-engine" value="• LearningEngine" style="text;html=1;strokeColor=none;fillColor=none;align=left;verticalAlign=middle;whiteSpace=wrap;rounded=0;fontSize=10;" vertex="1" parent="1">
          <mxGeometry x="210" y="800" width="100" height="15" as="geometry"/>
        </mxCell>
        
        <!-- Notion Service 컴포넌트 -->
        <mxCell id="notion-service-component" value="" style="rounded=1;whiteSpace=wrap;html=1;fillColor=#c8e6c9;strokeColor=#388e3c;strokeWidth=1;" vertex="1" parent="1">
          <mxGeometry x="380" y="740" width="250" height="130" as="geometry"/>
        </mxCell>
        
        <mxCell id="notion-service-title" value="Notion Service" style="text;html=1;strokeColor=none;fillColor=none;align=center;verticalAlign=middle;whiteSpace=wrap;rounded=0;fontSize=14;fontStyle=1;" vertex="1" parent="1">
          <mxGeometry x="455" y="750" width="100" height="20" as="geometry"/>
        </mxCell>
        
        <mxCell id="page-builder" value="• PageBuilder" style="text;html=1;strokeColor=none;fillColor=none;align=left;verticalAlign=middle;whiteSpace=wrap;rounded=0;fontSize=10;" vertex="1" parent="1">
          <mxGeometry x="390" y="770" width="100" height="15" as="geometry"/>
        </mxCell>
        
        <mxCell id="block-parser" value="• BlockParser" style="text;html=1;strokeColor=none;fillColor=none;align=left;verticalAlign=middle;whiteSpace=wrap;rounded=0;fontSize=10;" vertex="1" parent="1">
          <mxGeometry x="390" y="785" width="100" height="15" as="geometry"/>
        </mxCell>
        
        <mxCell id="template-engine" value="• TemplateEngine" style="text;html=1;strokeColor=none;fillColor=none;align=left;verticalAlign=middle;whiteSpace=wrap;rounded=0;fontSize=10;" vertex="1" parent="1">
          <mxGeometry x="390" y="800" width="100" height="15" as="geometry"/>
        </mxCell>
        
        <mxCell id="sync-manager" value="• SyncManager" style="text;html=1;strokeColor=none;fillColor=none;align=left;verticalAlign=middle;whiteSpace=wrap;rounded=0;fontSize=10;" vertex="1" parent="1">
          <mxGeometry x="390" y="815" width="100" height="15" as="geometry"/>
        </mxCell>
        
        <mxCell id="oauth-client" value="• OAuthClient" style="text;html=1;strokeColor=none;fillColor=none;align=left;verticalAlign=middle;whiteSpace=wrap;rounded=0;fontSize=10;" vertex="1" parent="1">
          <mxGeometry x="390" y="830" width="100" height="15" as="geometry"/>
        </mxCell>
        
        <mxCell id="api-client" value="• APIClient" style="text;html=1;strokeColor=none;fillColor=none;align=left;verticalAlign=middle;whiteSpace=wrap;rounded=0;fontSize=10;" vertex="1" parent="1">
          <mxGeometry x="500" y="770" width="100" height="15" as="geometry"/>
        </mxCell>
        
        <mxCell id="database-sync" value="• DatabaseSync" style="text;html=1;strokeColor=none;fillColor=none;align=left;verticalAlign=middle;whiteSpace=wrap;rounded=0;fontSize=10;" vertex="1" parent="1">
          <mxGeometry x="500" y="785" width="100" height="15" as="geometry"/>
        </mxCell>
        
        <mxCell id="link-manager" value="• LinkManager" style="text;html=1;strokeColor=none;fillColor=none;align=left;verticalAlign=middle;whiteSpace=wrap;rounded=0;fontSize=10;" vertex="1" parent="1">
          <mxGeometry x="500" y="800" width="100" height="15" as="geometry"/>
        </mxCell>
        
        <!-- JIRA Service 컴포넌트 -->
        <mxCell id="jira-service-component" value="" style="rounded=1;whiteSpace=wrap;html=1;fillColor=#c8e6c9;strokeColor=#388e3c;strokeWidth=1;" vertex="1" parent="1">
          <mxGeometry x="650" y="740" width="250" height="130" as="geometry"/>
        </mxCell>
        
        <mxCell id="jira-service-title" value="JIRA Service" style="text;html=1;strokeColor=none;fillColor=none;align=center;verticalAlign=middle;whiteSpace=wrap;rounded=0;fontSize=14;fontStyle=1;" vertex="1" parent="1">
          <mxGeometry x="725" y="750" width="100" height="20" as="geometry"/>
        </mxCell>
        
        <mxCell id="issue-builder" value="• IssueBuilder" style="text;html=1;strokeColor=none;fillColor=none;align=left;verticalAlign=middle;whiteSpace=wrap;rounded=0;fontSize=10;" vertex="1" parent="1">
          <mxGeometry x="660" y="770" width="100" height="15" as="geometry"/>
        </mxCell>
        
        <mxCell id="project-manager" value="• ProjectManager" style="text;html=1;strokeColor=none;fillColor=none;align=left;verticalAlign=middle;whiteSpace=wrap;rounded=0;fontSize=10;" vertex="1" parent="1">
          <mxGeometry x="660" y="785" width="100" height="15" as="geometry"/>
        </mxCell>
        
        <mxCell id="workflow-manager" value="• WorkflowManager" style="text;html=1;strokeColor=none;fillColor=none;align=left;verticalAlign=middle;whiteSpace=wrap;rounded=0;fontSize=10;" vertex="1" parent="1">
          <mxGeometry x="660" y="800" width="110" height="15" as="geometry"/>
        </mxCell>
        
        <mxCell id="webhook-handler" value="• WebhookHandler" style="text;html=1;strokeColor=none;fillColor=none;align=left;verticalAlign=middle;whiteSpace=wrap;rounded=0;fontSize=10;" vertex="1" parent="1">
          <mxGeometry x="660" y="815" width="110" height="15" as="geometry"/>
        </mxCell>
        
        <mxCell id="token-manager" value="• TokenManager" style="text;html=1;strokeColor=none;fillColor=none;align=left;verticalAlign=middle;whiteSpace=wrap;rounded=0;fontSize=10;" vertex="1" parent="1">
          <mxGeometry x="660" y="830" width="100" height="15" as="geometry"/>
        </mxCell>
        
        <mxCell id="atlassian-client" value="• AtlassianClient" style="text;html=1;strokeColor=none;fillColor=none;align=left;verticalAlign=middle;whiteSpace=wrap;rounded=0;fontSize=10;" vertex="1" parent="1">
          <mxGeometry x="780" y="770" width="100" height="15" as="geometry"/>
        </mxCell>
        
        <mxCell id="issue-tracker" value="• IssueTracker" style="text;html=1;strokeColor=none;fillColor=none;align=left;verticalAlign=middle;whiteSpace=wrap;rounded=0;fontSize=10;" vertex="1" parent="1">
          <mxGeometry x="780" y="785" width="100" height="15" as="geometry"/>
        </mxCell>
        
        <mxCell id="hierarchy-manager" value="• HierarchyManager" style="text;html=1;strokeColor=none;fillColor=none;align=left;verticalAlign=middle;whiteSpace=wrap;rounded=0;fontSize=10;" vertex="1" parent="1">
          <mxGeometry x="780" y="800" width="110" height="15" as="geometry"/>
        </mxCell>
        
        <!-- 데이터 레이어 -->
        <mxCell id="data-layer" value="" style="rounded=1;whiteSpace=wrap;html=1;fillColor=#e3f2fd;strokeColor=#0277bd;strokeWidth=2;dashed=1;" vertex="1" parent="1">
          <mxGeometry x="50" y="910" width="1700" height="150" as="geometry"/>
        </mxCell>
        
        <mxCell id="data-title" value="데이터 레이어" style="text;html=1;strokeColor=none;fillColor=none;align=left;verticalAlign=middle;whiteSpace=wrap;rounded=0;fontSize=16;fontStyle=1;fontColor=#0277bd;" vertex="1" parent="1">
          <mxGeometry x="70" y="920" width="200" height="30" as="geometry"/>
        </mxCell>
        
        <!-- PostgreSQL 컴포넌트 -->
        <mxCell id="postgresql-component" value="" style="rounded=1;whiteSpace=wrap;html=1;fillColor=#bbdefb;strokeColor=#0277bd;strokeWidth=1;" vertex="1" parent="1">
          <mxGeometry x="80" y="960" width="300" height="80" as="geometry"/>
        </mxCell>
        
        <mxCell id="postgresql-title" value="PostgreSQL Database" style="text;html=1;strokeColor=none;fillColor=none;align=center;verticalAlign=middle;whiteSpace=wrap;rounded=0;fontSize=14;fontStyle=1;" vertex="1" parent="1">
          <mxGeometry x="180" y="970" width="100" height="20" as="geometry"/>
        </mxCell>
        
        <mxCell id="connection-pool" value="• ConnectionPool" style="text;html=1;strokeColor=none;fillColor=none;align=left;verticalAlign=middle;whiteSpace=wrap;rounded=0;fontSize=10;" vertex="1" parent="1">
          <mxGeometry x="90" y="990" width="100" height="15" as="geometry"/>
        </mxCell>
        
        <mxCell id="schema-manager" value="• SchemaManager" style="text;html=1;strokeColor=none;fillColor=none;align=left;verticalAlign=middle;whiteSpace=wrap;rounded=0;fontSize=10;" vertex="1" parent="1">
          <mxGeometry x="90" y="1005" width="100" height="15" as="geometry"/>
        </mxCell>
        
        <mxCell id="transaction-manager" value="• TransactionManager" style="text;html=1;strokeColor=none;fillColor=none;align=left;verticalAlign=middle;whiteSpace=wrap;rounded=0;fontSize=10;" vertex="1" parent="1">
          <mxGeometry x="90" y="1020" width="120" height="15" as="geometry"/>
        </mxCell>
        
        <mxCell id="backup-manager" value="• BackupManager" style="text;html=1;strokeColor=none;fillColor=none;align=left;verticalAlign=middle;whiteSpace=wrap;rounded=0;fontSize=10;" vertex="1" parent="1">
          <mxGeometry x="220" y="990" width="100" height="15" as="geometry"/>
        </mxCell>
        
        <mxCell id="query-optimizer" value="• QueryOptimizer" style="text;html=1;strokeColor=none;fillColor=none;align=left;verticalAlign=middle;whiteSpace=wrap;rounded=0;fontSize=10;" vertex="1" parent="1">
          <mxGeometry x="220" y="1005" width="100" height="15" as="geometry"/>
        </mxCell>
        
        <mxCell id="replication-manager" value="• ReplicationManager" style="text;html=1;strokeColor=none;fillColor=none;align=left;verticalAlign=middle;whiteSpace=wrap;rounded=0;fontSize=10;" vertex="1" parent="1">
          <mxGeometry x="220" y="1020" width="120" height="15" as="geometry"/>
        </mxCell>
        
        <!-- Prisma ORM 컴포넌트 -->
        <mxCell id="prisma-component" value="" style="rounded=1;whiteSpace=wrap;html=1;fillColor=#bbdefb;strokeColor=#0277bd;strokeWidth=1;" vertex="1" parent="1">
          <mxGeometry x="400" y="960" width="250" height="80" as="geometry"/>
        </mxCell>
        
        <mxCell id="prisma-title" value="Prisma ORM" style="text;html=1;strokeColor=none;fillColor=none;align=center;verticalAlign=middle;whiteSpace=wrap;rounded=0;fontSize=14;fontStyle=1;" vertex="1" parent="1">
          <mxGeometry x="475" y="970" width="100" height="20" as="geometry"/>
        </mxCell>
        
        <mxCell id="query-builder" value="• QueryBuilder" style="text;html=1;strokeColor=none;fillColor=none;align=left;verticalAlign=middle;whiteSpace=wrap;rounded=0;fontSize=10;" vertex="1" parent="1">
          <mxGeometry x="410" y="990" width="100" height="15" as="geometry"/>
        </mxCell>
        
        <mxCell id="migration-engine" value="• MigrationEngine" style="text;html=1;strokeColor=none;fillColor=none;align=left;verticalAlign=middle;whiteSpace=wrap;rounded=0;fontSize=10;" vertex="1" parent="1">
          <mxGeometry x="410" y="1005" width="110" height="15" as="geometry"/>
        </mxCell>
        
        <mxCell id="type-generator" value="• TypeGenerator" style="text;html=1;strokeColor=none;fillColor=none;align=left;verticalAlign=middle;whiteSpace=wrap;rounded=0;fontSize=10;" vertex="1" parent="1">
          <mxGeometry x="410" y="1020" width="100" height="15" as="geometry"/>
        </mxCell>
        
        <mxCell id="schema-validator" value="• SchemaValidator" style="text;html=1;strokeColor=none;fillColor=none;align=left;verticalAlign=middle;whiteSpace=wrap;rounded=0;fontSize=10;" vertex="1" parent="1">
          <mxGeometry x="530" y="990" width="110" height="15" as="geometry"/>
        </mxCell>
        
        <mxCell id="introspection-engine" value="• IntrospectionEngine" style="text;html=1;strokeColor=none;fillColor=none;align=left;verticalAlign=middle;whiteSpace=wrap;rounded=0;fontSize=10;" vertex="1" parent="1">
          <mxGeometry x="530" y="1005" width="120" height="15" as="geometry"/>
        </mxCell>
        
        <!-- Redis 컴포넌트 -->
        <mxCell id="redis-component" value="" style="rounded=1;whiteSpace=wrap;html=1;fillColor=#bbdefb;strokeColor=#0277bd;strokeWidth=1;" vertex="1" parent="1">
          <mxGeometry x="670" y="960" width="200" height="80" as="geometry"/>
        </mxCell>
        
        <mxCell id="redis-title" value="Redis Cache" style="text;html=1;strokeColor=none;fillColor=none;align=center;verticalAlign=middle;whiteSpace=wrap;rounded=0;fontSize=14;fontStyle=1;" vertex="1" parent="1">
          <mxGeometry x="720" y="970" width="100" height="20" as="geometry"/>
        </mxCell>
        
        <mxCell id="session-store" value="• SessionStore" style="text;html=1;strokeColor=none;fillColor=none;align=left;verticalAlign=middle;whiteSpace=wrap;rounded=0;fontSize=10;" vertex="1" parent="1">
          <mxGeometry x="680" y="990" width="100" height="15" as="geometry"/>
        </mxCell>
        
        <mxCell id="data-cache" value="• DataCache" style="text;html=1;strokeColor=none;fillColor=none;align=left;verticalAlign=middle;whiteSpace=wrap;rounded=0;fontSize=10;" vertex="1" parent="1">
          <mxGeometry x="680" y="1005" width="100" height="15" as="geometry"/>
        </mxCell>
        
        <mxCell id="pub-sub" value="• PubSub" style="text;html=1;strokeColor=none;fillColor=none;align=left;verticalAlign=middle;whiteSpace=wrap;rounded=0;fontSize=10;" vertex="1" parent="1">
          <mxGeometry x="680" y="1020" width="100" height="15" as="geometry"/>
        </mxCell>
        
        <mxCell id="distributed-lock" value="• DistributedLock" style="text;html=1;strokeColor=none;fillColor=none;align=left;verticalAlign=middle;whiteSpace=wrap;rounded=0;fontSize=10;" vertex="1" parent="1">
          <mxGeometry x="790" y="990" width="100" height="15" as="geometry"/>
        </mxCell>
        
        <mxCell id="rate-limit-store" value="• RateLimitStore" style="text;html=1;strokeColor=none;fillColor=none;align=left;verticalAlign=middle;whiteSpace=wrap;rounded=0;fontSize=10;" vertex="1" parent="1">
          <mxGeometry x="790" y="1005" width="100" height="15" as="geometry"/>
        </mxCell>
        
        <!-- 연결선들 -->
        <!-- 클라이언트 → 백엔드 -->
        <mxCell id="client-to-backend" value="" style="endArrow=classic;html=1;rounded=0;entryX=0.5;entryY=0;entryDx=0;entryDy=0;exitX=0.5;exitY=1;exitDx=0;exitDy=0;" edge="1" parent="1" source="slack-bot-component" target="express-server-component">
          <mxGeometry width="50" height="50" relative="1" as="geometry">
            <mxPoint x="205" y="230" as="sourcePoint"/>
            <mxPoint x="230" y="300" as="targetPoint"/>
          </mxGeometry>
        </mxCell>
        
        <mxCell id="web-to-backend" value="" style="endArrow=classic;html=1;rounded=0;entryX=0.5;entryY=0;entryDx=0;entryDy=0;exitX=0.5;exitY=1;exitDx=0;exitDy=0;" edge="1" parent="1" source="web-dashboard-component" target="express-server-component">
          <mxGeometry width="50" height="50" relative="1" as="geometry">
            <mxPoint x="490" y="230" as="sourcePoint"/>
            <mxPoint x="240" y="310" as="targetPoint"/>
          </mxGeometry>
        </mxCell>
        
        <!-- 백엔드 → AI -->
        <mxCell id="backend-to-ai" value="" style="endArrow=classic;html=1;rounded=0;entryX=0.5;entryY=0;entryDx=0;entryDy=0;exitX=0.5;exitY=1;exitDx=0;exitDy=0;" edge="1" parent="1" source="express-server-component" target="ai-server-component">
          <mxGeometry width="50" height="50" relative="1" as="geometry">
            <mxPoint x="230" y="450" as="sourcePoint"/>
            <mxPoint x="205" y="520" as="targetPoint"/>
          </mxGeometry>
        </mxCell>
        
        <!-- AI 내부 연결 -->
        <mxCell id="ai-to-whisper" value="" style="endArrow=classic;html=1;rounded=0;entryX=0;entryY=0.5;entryDx=0;entryDy=0;exitX=1;exitY=0.5;exitDx=0;exitDy=0;" edge="1" parent="1" source="ai-server-component" target="whisperx-component">
          <mxGeometry width="50" height="50" relative="1" as="geometry">
            <mxPoint x="330" y="585" as="sourcePoint"/>
            <mxPoint x="350" y="585" as="targetPoint"/>
          </mxGeometry>
        </mxCell>
        
        <mxCell id="whisper-to-klue" value="" style="endArrow=classic;html=1;rounded=0;entryX=0;entryY=0.5;entryDx=0;entryDy=0;exitX=1;exitY=0.5;exitDx=0;exitDy=0;" edge="1" parent="1" source="whisperx-component" target="klue-bert-component">
          <mxGeometry width="50" height="50" relative="1" as="geometry">
            <mxPoint x="550" y="585" as="sourcePoint"/>
            <mxPoint x="570" y="585" as="targetPoint"/>
          </mxGeometry>
        </mxCell>
        
        <mxCell id="klue-to-qwen" value="" style="endArrow=classic;html=1;rounded=0;entryX=0;entryY=0.5;entryDx=0;entryDy=0;exitX=1;exitY=0.5;exitDx=0;exitDy=0;" edge="1" parent="1" source="klue-bert-component" target="qwen3-component">
          <mxGeometry width="50" height="50" relative="1" as="geometry">
            <mxPoint x="770" y="585" as="sourcePoint"/>
            <mxPoint x="790" y="585" as="targetPoint"/>
          </mxGeometry>
        </mxCell>
        
        <!-- 백엔드 → 비즈니스 -->
        <mxCell id="backend-to-business" value="" style="endArrow=classic;html=1;rounded=0;entryX=0.5;entryY=0;entryDx=0;entryDy=0;exitX=0.5;exitY=1;exitDx=0;exitDy=0;" edge="1" parent="1" source="express-server-component" target="task-assigner-component">
          <mxGeometry width="50" height="50" relative="1" as="geometry">
            <mxPoint x="230" y="450" as="sourcePoint"/>
            <mxPoint x="220" y="740" as="targetPoint"/>
          </mxGeometry>
        </mxCell>
        
        <!-- 비즈니스 → 데이터 -->
        <mxCell id="business-to-data" value="" style="endArrow=classic;html=1;rounded=0;entryX=0.5;entryY=0;entryDx=0;entryDy=0;exitX=0.5;exitY=1;exitDx=0;exitDy=0;" edge="1" parent="1" source="task-assigner-component" target="postgresql-component">
          <mxGeometry width="50" height="50" relative="1" as="geometry">
            <mxPoint x="220" y="870" as="sourcePoint"/>
            <mxPoint x="230" y="960" as="targetPoint"/>
          </mxGeometry>
        </mxCell>
        
        <!-- 범례 -->
        <mxCell id="legend-title" value="컴포넌트 레이어 범례" style="text;html=1;strokeColor=none;fillColor=none;align=center;verticalAlign=middle;whiteSpace=wrap;rounded=0;fontSize=14;fontStyle=1;" vertex="1" parent="1">
          <mxGeometry x="1100" y="80" width="200" height="30" as="geometry"/>
        </mxCell>
        
        <mxCell id="legend-client" value="클라이언트 레이어" style="rounded=1;whiteSpace=wrap;html=1;fillColor=#e1bee7;strokeColor=#7b1fa2;strokeWidth=1;fontSize=12;" vertex="1" parent="1">
          <mxGeometry x="1100" y="120" width="120" height="30" as="geometry"/>
        </mxCell>
        
        <mxCell id="legend-backend" value="백엔드 API 레이어" style="rounded=1;whiteSpace=wrap;html=1;fillColor=#ffe0b2;strokeColor=#f57c00;strokeWidth=1;fontSize=12;" vertex="1" parent="1">
          <mxGeometry x="1100" y="160" width="120" height="30" as="geometry"/>
        </mxCell>
        
        <mxCell id="legend-ai" value="AI 처리 엔진" style="rounded=1;whiteSpace=wrap;html=1;fillColor=#ffcdd2;strokeColor=#d32f2f;strokeWidth=1;fontSize=12;" vertex="1" parent="1">
          <mxGeometry x="1100" y="200" width="120" height="30" as="geometry"/>
        </mxCell>
        
        <mxCell id="legend-business" value="비즈니스 서비스" style="rounded=1;whiteSpace=wrap;html=1;fillColor=#c8e6c9;strokeColor=#388e3c;strokeWidth=1;fontSize=12;" vertex="1" parent="1">
          <mxGeometry x="1100" y="240" width="120" height="30" as="geometry"/>
        </mxCell>
        
        <mxCell id="legend-data" value="데이터 레이어" style="rounded=1;whiteSpace=wrap;html=1;fillColor=#bbdefb;strokeColor=#0277bd;strokeWidth=1;fontSize=12;" vertex="1" parent="1">
          <mxGeometry x="1100" y="280" width="120" height="30" as="geometry"/>
        </mxCell>
        
      </root>
    </mxGraphModel>
  </diagram>
</mxfile>